<svg data-v-45aeeae0="" xmlns="http://www.w3.org/2000/svg" width="59.091" height="50.616" viewBox="0 0 59.091 50.616"><path d="M2235.737,985.874a8.433,8.433,0,0,0-5.3-4.172c2.47-8.48-1-17.992-10.574-19.989-5.858-1.222-10.79.653-14.623,5.294-.166.2-.316.414-.48.616a1.061,1.061,0,0,1-.207.14c-.145-.152-.31-.3-.444-.47-3.928-5.029-9.083-6.955-15.231-5.464a13.978,13.978,0,0,0-8.918,6.332c-2.329,3.914-2.646,7.912-1.7,12.312a21.764,21.764,0,0,0,6.547,11.124c3.419,3.3,7.027,6.406,10.526,9.625a56.985,56.985,0,0,1,8.786,10.062c.143.212.253.446.378.67h.2c1.874-2.48,3.515-5.189,5.673-7.391.792-.809,1.625-1.578,2.449-2.355.23.208.453.422.684.629.7.632,1.408,1.263,2.1,1.906a29.376,29.376,0,0,1,4.57,5.225l.842-.566.024.018-.709.833.323.573h1.321l.335-.445c.323-.426.632-.865.941-1.3a20.512,20.512,0,0,1,2.027-2.578c1.393-1.421,2.9-2.8,4.352-4.137.75-.689,1.5-1.375,2.24-2.073a15.935,15.935,0,0,0,4.113-5.409A10.721,10.721,0,0,0,2235.737,985.874Zm-1.831,8.153a13.675,13.675,0,0,1-3.578,4.629c-.733.691-1.476,1.373-2.218,2.053-1.476,1.356-3.005,2.757-4.437,4.221a22.6,22.6,0,0,0-2.26,2.853c0,.009-.011.016-.015.025a32.762,32.762,0,0,0-4.273-4.719c-.705-.647-1.415-1.285-2.126-1.924-1.191-1.07-2.382-2.138-3.532-3.248a10.554,10.554,0,0,1-3.211-5.429,7.548,7.548,0,0,1,.781-5.829,6.443,6.443,0,0,1,4.111-2.9,7.817,7.817,0,0,1,1.869-.239,6.405,6.405,0,0,1,5.2,2.786,4.321,4.321,0,0,0,.318.345l.671.6.764-.456a1.408,1.408,0,0,0,.353-.3l-.75-.86,0,0,1,.536a6.558,6.558,0,0,1,6.79-2.473,6.233,6.233,0,0,1,4.391,3.223A8.464,8.464,0,0,1,2233.906,994.027Z" transform="translate(-2177.761 -961.338)" fill="#21388b"></path></svg>