<svg data-v-45aeeae0="" xmlns="http://www.w3.org/2000/svg" width="53.435" height="50.288" viewBox="0 0 53.435 50.288"><path d="M1603.662,964.334a15.156,15.156,0,0,0-17.872-1.616c-.245.142-.494.294-.742.454a.519.519,0,0,0-.226.542l1.671,8.021-5.561,5.45a.519.519,0,0,0,.037.774l5.1,4.125-3.633,7.817a.515.515,0,0,0-.04.309l1.348,7.609-2.912-7.584,2.766-7.723-6.34-5.3,4.842-5.418-3.8-8.645s-8.53-7.262-18.789,1.614c0,0-13.256,11.3,4.38,28.125,0,0,13.487,11.182,17.752,17.752l4.726-5.994-.008-.021c1.794-1.869,3.674-3.562,5.6-5.262,2.274-2,4.679-4.357,6.271-5.915.877-.858,1.569-1.536,1.891-1.816a45.756,45.756,0,0,0,4.294-4.6,24.213,24.213,0,0,0,2.849-5.732C1609.034,976,1608.363,968.478,1603.662,964.334Zm2.622,16.634a23.188,23.188,0,0,1-2.728,5.485,45.361,45.361,0,0,1-4.111,4.394c-.346.3-1.013.953-1.937,1.858-1.678,1.643-3.977,3.893-6.231,5.878-1.827,1.609-3.613,3.208-5.331,4.965l-.244-.635-2.254-12.723,3.735-8.036a.52.52,0,0,0-.144-.622l-4.965-4.014,5.347-5.24a.517.517,0,0,0,.145-.476l-1.656-7.947c.134-.083.268-.163.4-.239a14.131,14.131,0,0,1,16.666,1.5C1607.338,968.958,1607.942,976,1606.284,980.968Z" transform="translate(-1554.729 -960.35)" fill="#21388b"></path></svg>