<svg data-v-45aeeae0="" xmlns="http://www.w3.org/2000/svg" width="53.467" height="50.615" viewBox="0 0 53.467 50.615"><g transform="translate(-1761.399 -960.186)"><path d="M1780.494,984.708c-.031-.013-.061-.03-.092-.043l-.013.007C1780.424,984.684,1780.458,984.7,1780.494,984.708Z" fill="#21388b"></path> <path d="M1778.659,983.459l-1.4.715q-4.183,2.125-8.369,4.25c-.222.112-.472.291-.708.094-.008-.007-.008-.015-.016-.022l-1.042.583c.233.256.476.505.72.754l11.072-6.138C1778.83,983.617,1778.742,983.541,1778.659,983.459Z" fill="#21388b"></path> <path d="M1812.584,966.825l-26.961,14.946a2.952,2.952,0,0,1-.057.352,27.5,27.5,0,0,1,6.773,1.644,4.944,4.944,0,0,1,1.642,1.027c.408.407.484.646.193,1.145a14.016,14.016,0,0,1-1.178,1.737c-.556.691-1.176,1.329-1.53,1.725a26.181,26.181,0,0,1-3.688,3.16c-.232.154-.488.273-.736.4a.633.633,0,0,1-.854-.159,10.062,10.062,0,0,1-1-1.412,29.031,29.031,0,0,1-2.063-5.369c-.123-.4-.234-.8-.342-1.208a4.734,4.734,0,0,1-.707.181c-.031.006-.07,0-.1,0-.016.5-.03.985-.047,1.47q-.168,4.705-.339,9.412a1.533,1.533,0,0,1-.042.339c-.084.32-.3.391-.536.159a5.359,5.359,0,0,1-.487-.585c-.545-.722-1.08-1.451-1.625-2.173a.863.863,0,0,0-1.075-.31c-1,.369-1.988.745-2.985,1.112-.241.088-.523.242-.731-.01-.193-.232-.02-.483.093-.708q1.945-3.88,3.892-7.76l-9.076,5.031c3.25,3.1,6.645,6.052,9.952,9.1a57.025,57.025,0,0,1,8.787,10.061c.143.212.253.446.378.67h.2c1.874-2.48,3.515-5.189,5.673-7.391,3.935-4.015,8.188-7.716,12.285-11.573,2.881-2.712,5.6-5.588,7.129-9.306A17.588,17.588,0,0,0,1812.584,966.825Z" fill="#21388b"></path> <path d="M1769.251,984.846a.9.9,0,0,0-.358-1.171c-.829-.6-1.657-1.213-2.475-1.833-.18-.136-.445-.287-.341-.564.093-.247.373-.224.6-.233q5.283-.219,10.565-.431l.172-.007a2.5,2.5,0,0,1,.208-.808,32.082,32.082,0,0,1-6.579-2.407,6.543,6.543,0,0,1-1.177-.829c-.409-.352-.458-.57-.182-1.041a16,16,0,0,1,1.23-1.828,24.579,24.579,0,0,1,3.229-3.395,22.933,22.933,0,0,1,2.209-1.694c.752-.5,1.14-.381,1.683.355a10.456,10.456,0,0,1,1.5,3.454,36.564,36.564,0,0,1,1.019,5.162c0,.025-.024.05-.029.077a6.824,6.824,0,0,1,1.35-.252,3.02,3.02,0,0,1,1.983.519l25.825-14.45a14.132,14.132,0,0,0-6.185-2.909c-5.858-1.223-10.79.653-14.622,5.294-.166.2-.316.414-.481.616a1.12,1.12,0,0,1-.207.14c-.144-.152-.309-.3-.443-.471-3.928-5.028-9.083-6.954-15.231-5.463a13.975,13.975,0,0,0-8.919,6.331,16.167,16.167,0,0,0-1.7,12.313,20.341,20.341,0,0,0,4.187,8.544l2.591-1.449Q1768.964,985.632,1769.251,984.846Z" fill="#21388b"></path> <path d="M1785.4,980.1l26.283-14.571c-.253-.322-.513-.638-.8-.938l-25.955,14.523A5.4,5.4,0,0,1,1785.4,980.1Z" fill="#21388b"></path></g></svg>