<svg data-v-e114f776="" xmlns="http://www.w3.org/2000/svg" width="25" height="25" viewBox="0 0 51.879 54.808"><path d="m1433.32 1336.692-10.963-4.1v-3.724a18.284 18.284 0 0 0 6.1-13.944c0-.458-.029-.906-.059-1.354a2.335 2.335 0 0 0 0-.251c0-.012-.007-.023-.008-.035-.712-8.759-7.05-15.636-14.745-15.636-7.308 0-13.383 6.21-14.584 14.341a2.415 2.415 0 0 0-.063.476 20.076 20.076 0 0 0-.168 2.46 18.114 18.114 0 0 0 6.8 14.513v3.15l-11.015 4.087a9.955 9.955 0 0 0-6.562 9.372v3.906a2.5 2.5 0 0 0 2.5 2.5h46.874a2.5 2.5 0 0 0 2.5-2.5v-3.906a9.981 9.981 0 0 0-6.607-9.355zm-19.676-34.035c4.428 0 8.176 3.691 9.392 8.74-1.993.114-3.607-.67-5.333-3.692a2.54 2.54 0 0 0-2.221-1.261 2.5 2.5 0 0 0-2.171 1.344c-.822 1.577-4.082 3.408-7.054 3.408a8.031 8.031 0 0 1-1.893-.21c1.317-4.836 4.975-8.329 9.28-8.329zm-9.767 13.317a13.23 13.23 0 0 0 2.38.227 15.31 15.31 0 0 0 9.059-3.22 9.347 9.347 0 0 0 7.344 3.432c.234 0 .479-.023.721-.038a12.732 12.732 0 0 1-4.883 9.206c-.065.041-.122.091-.183.138a8.259 8.259 0 0 1-4.671 1.482c-5.126-.001-9.344-4.948-9.767-11.227zm31.053 31.481h-41.869v-1.4a4.948 4.948 0 0 1 3.268-4.67l12.676-4.7a2.5 2.5 0 0 0 1.633-2.346v-2.485a12.528 12.528 0 0 0 6.714-.21v2.695a2.5 2.5 0 0 0 1.627 2.344l12.624 4.716a5.045 5.045 0 0 1 3.327 4.659z" transform="translate(-1388.056 -1297.652)" style="fill: rgb(251, 185, 5);"></path></svg>