<svg data-v-e114f776="" xmlns="http://www.w3.org/2000/svg" width="25" height="25" viewBox="0 0 59.211 55.314"><path d="M709.028 1327.928a7.871 7.871 0 0 0-1.869-5.179v-4.073c0-11.274-7.831-20.446-17.457-20.446h-20.56c-9.626 0-17.457 9.172-17.457 20.446v4.073a7.873 7.873 0 0 0-1.869 5.179v2.382a7.871 7.871 0 0 0 1.869 5.178v2.782c0 8.423 7.831 15.274 17.457 15.274H689.7c9.626 0 17.457-6.851 17.457-15.274v-2.781a7.873 7.873 0 0 0 1.869-5.179zm-5.005 0v2.382c0 1.313-.738 2.263-1.235 2.263h-46.73c-.5 0-1.236-.95-1.236-2.263v-2.382c0-1.361.744-2.263 1.236-2.263h46.73c.491 0 1.235.902 1.235 2.263zm-47.332-9.252c0-8.515 5.586-15.441 12.452-15.441H689.7c6.866 0 12.452 6.926 12.452 15.441v1.984h-45.461zm45.463 19.595c0 5.662-5.586 10.269-12.452 10.269h-20.56c-6.866 0-12.452-4.607-12.452-10.269v-.692h45.463z" transform="translate(-649.817 -1298.23)" style="fill: rgb(251, 185, 5);"></path></svg>