<svg data-v-45aeeae0="" xmlns="http://www.w3.org/2000/svg" width="70.458" height="50.615" viewBox="0 0 70.458 50.615"><path d="M2031.824,994.313l-5.1-8.127a1.038,1.038,0,0,0-.879-.486,1.023,1.023,0,0,0-.307.047,1.037,1.037,0,0,0-.729,1.033l.1,2.473-3.5-1.765-.575-.289a19.942,19.942,0,0,0,2.809-4.668c3.673-8.913.405-19.816-9.919-21.97-5.858-1.223-10.79.653-14.623,5.294-.166.2-.316.414-.481.615a1.032,1.032,0,0,1-.207.141c-.144-.152-.309-.3-.443-.471-3.928-5.028-9.083-6.954-15.232-5.463a13.974,13.974,0,0,0-8.918,6.332c-.026.045-.045.09-.071.135l-.731-.343v-1.244a1.037,1.037,0,0,0-.578-.93l-6.83-3.372a1.037,1.037,0,0,0-1.451,1.235l1.083,3.521-3.007.98a1.038,1.038,0,0,0-.115,1.927l6.138,2.853a1.034,1.034,0,0,0,.437.1,1.05,1.05,0,0,0,.482-.118l1.351-.708,1.433.7a18,18,0,0,0,.161,7.581,21.766,21.766,0,0,0,6.547,11.123c3.42,3.3,7.027,6.407,10.526,9.626a56.979,56.979,0,0,1,8.787,10.061c.143.212.253.447.378.67h.2c1.874-2.48,3.515-5.189,5.673-7.391,3.935-4.015,8.189-7.716,12.286-11.573.3-.286.6-.581.891-.875l5.571,2.635-1.736,1.3a1.037,1.037,0,0,0,.622,1.867c.033,0,.066,0,.1,0l9.077-.865a1.037,1.037,0,0,0,.781-1.584Zm-59.595-23.6-1.714-.834-1.816.951-6.138-2.853,3.977-1.3-1.383-4.5,6.829,3.372v1.9l1.282.6A15.185,15.185,0,0,0,1972.229,970.714Zm49.639,25.015,3.112-2.334-.276-.131-10.554-4.991-5.965-2.822a9.492,9.492,0,0,1-2.324-1.215,1.371,1.371,0,0,1-.185-1.918,1.691,1.691,0,0,1,1.406-.8,1.3,1.3,0,0,1,.451.078,21.789,21.789,0,0,1,2.064,1.09q3.147,1.589,6.295,3.176l10.107,5.1.018.009-.173-4.236,5.1,8.126Z" transform="translate(-1961.524 -960.186)" fill="#21388b"></path></svg>