<svg xmlns="http://www.w3.org/2000/svg" width="160.51" height="46.679" viewBox="0 0 160.51 46.679"><g transform="translate(-63.051 -351.053)"><g transform="translate(62 350)"><path d="M74.347,399.916c-.367,0-.725,0-1.089-.013a15.273,15.273,0,0,1-2.25-.2,7.077,7.077,0,0,1-1.995-.66,6.5,6.5,0,0,1-1.682-1.224,6.4,6.4,0,0,1-1.229-1.681,6.9,6.9,0,0,1-.654-2,14.939,14.939,0,0,1-.2-2.257c-.007-.254-.018-1.1-.018-1.1V362.351s.01-.832.018-1.077a14.873,14.873,0,0,1,.2-2.254,6.936,6.936,0,0,1,.654-2,6.467,6.467,0,0,1,1.222-1.683,6.7,6.7,0,0,1,1.688-1.231,7.019,7.019,0,0,1,1.99-.655,15.182,15.182,0,0,1,2.258-.2l1.086-.015H216.62l1.1.015a14.9,14.9,0,0,1,2.237.2,7.146,7.146,0,0,1,2.012.66,6.73,6.73,0,0,1,2.908,2.913,6.939,6.939,0,0,1,.644,1.985,15.622,15.622,0,0,1,.209,2.272c0,.341,0,.707,0,1.072.009.452.009.881.009,1.315V389.49c0,.437,0,.864-.009,1.294,0,.391,0,.75,0,1.119a15.332,15.332,0,0,1-.206,2.231,6.909,6.909,0,0,1-.65,2.011,6.587,6.587,0,0,1-1.223,1.668,6.514,6.514,0,0,1-1.685,1.231,7.062,7.062,0,0,1-2.008.662,15.1,15.1,0,0,1-2.25.2c-.353.008-.722.013-1.08.013l-1.305,0Z" transform="translate(-64.181 -352.186)"/></g><g transform="translate(113.179 372.436)"><path d="M223.09,430.967l-1.159,3.841h-2.566l4.361-13.59h3.162l4.415,13.59h-2.665l-1.23-3.841ZM227,429.09l-1.071-3.348c-.261-.842-.486-1.767-.69-2.555h-.045c-.2.8-.406,1.738-.646,2.547l-1.05,3.357Z" transform="translate(-219.364 -420.492)" fill="#fff"/><path d="M257.846,435.616c0-1.273-.036-2.33-.081-3.254h2.18l.122,1.508h.04a3.8,3.8,0,0,1,3.365-1.729c2.25,0,4.118,1.927,4.118,4.991,0,3.561-2.228,5.268-4.464,5.268a3.189,3.189,0,0,1-2.759-1.311h-.04v5.081h-2.481Zm2.481,2.453a3.117,3.117,0,0,0,.068.676,2.25,2.25,0,0,0,2.18,1.736c1.575,0,2.5-1.308,2.5-3.235,0-1.739-.845-3.151-2.441-3.151a2.325,2.325,0,0,0-2.216,1.838,2.57,2.57,0,0,0-.089.626Z" transform="translate(-245.276 -427.863)" fill="#fff"/><path d="M290.83,435.616c0-1.273-.036-2.33-.081-3.254h2.179l.122,1.508h.04a3.8,3.8,0,0,1,3.365-1.729c2.25,0,4.118,1.927,4.118,4.991,0,3.561-2.228,5.268-4.464,5.268a3.189,3.189,0,0,1-2.759-1.311h-.04v5.081H290.83Zm2.481,2.453a3.117,3.117,0,0,0,.068.676,2.25,2.25,0,0,0,2.18,1.736c1.575,0,2.5-1.308,2.5-3.235,0-1.739-.845-3.151-2.441-3.151a2.325,2.325,0,0,0-2.216,1.838,2.584,2.584,0,0,0-.089.626Z" transform="translate(-267.533 -427.863)" fill="#fff"/><path d="M333.68,433.906a13.834,13.834,0,0,1-4.376.756,7.3,7.3,0,0,1-5.326-1.811,6.787,6.787,0,0,1-1.907-4.991c.011-4.311,3.078-7.06,7.574-7.06a9.093,9.093,0,0,1,3.607.639l-.55,2a7.248,7.248,0,0,0-3.09-.579c-2.893,0-4.937,1.715-4.937,4.873,0,3.093,1.9,4.915,4.718,4.915a4.917,4.917,0,0,0,1.876-.27v-3.392h-2.393v-1.95h4.8Z" transform="translate(-288.669 -420.21)" fill="#fff"/><path d="M366.566,442.178l-.17-1.093h-.06a3.588,3.588,0,0,1-2.893,1.315,2.908,2.908,0,0,1-3.095-2.92c0-2.477,2.207-3.731,5.822-3.716V435.6c0-.645-.255-1.718-1.993-1.711a5.238,5.238,0,0,0-2.639.732l-.492-1.611a7.1,7.1,0,0,1,3.558-.871c3.148,0,4.047,1.985,4.047,4.138v3.535a14.7,14.7,0,0,0,.153,2.365Zm-.329-4.807c-1.751-.023-3.426.346-3.426,1.841a1.31,1.31,0,0,0,1.415,1.414,2.02,2.02,0,0,0,1.942-1.358,1.875,1.875,0,0,0,.069-.54Z" transform="translate(-314.497 -427.863)" fill="#fff"/><path d="M390.7,418.986h2.484V433.3H390.7Z" transform="translate(-334.975 -418.986)" fill="#fff"/><path d="M403.344,418.986h2.484V433.3h-2.484Z" transform="translate(-343.509 -418.986)" fill="#fff"/><path d="M416.433,437.957c.066,1.779,1.443,2.557,3.032,2.557a7.467,7.467,0,0,0,2.709-.455l.368,1.708a8.876,8.876,0,0,1-3.43.623c-3.187,0-5.053-1.969-5.053-4.977,0-2.709,1.643-5.273,4.8-5.273,3.191,0,4.23,2.623,4.23,4.774a5.192,5.192,0,0,1-.087,1.042Zm4.317-1.73a2.113,2.113,0,0,0-2.047-2.392,2.429,2.429,0,0,0-2.274,2.392Z" transform="translate(-350.738 -427.863)" fill="#fff"/><path d="M444.523,435.518c0-1.315-.027-2.281-.081-3.156h2.15l.092,1.866h.07a2.925,2.925,0,0,1,2.687-2.087,2.344,2.344,0,0,1,.582.054v2.337a3.366,3.366,0,0,0-.728-.071,2.188,2.188,0,0,0-2.225,1.878,4.13,4.13,0,0,0-.063.748v5.091h-2.484Z" transform="translate(-371.241 -427.863)" fill="#fff"/><path d="M463.934,432.822l1.77,5.262c.2.608.408,1.358.553,1.9h.058c.154-.551.337-1.29.521-1.924l1.537-5.241h2.647l-2.459,6.7c-1.347,3.664-2.258,5.292-3.414,6.311a5.138,5.138,0,0,1-2.6,1.255l-.56-2.09a4.466,4.466,0,0,0,1.434-.677,4.3,4.3,0,0,0,1.363-1.566.935.935,0,0,0,.156-.435,1.2,1.2,0,0,0-.13-.484l-3.607-9.013Z" transform="translate(-382.548 -428.322)" fill="#fff"/></g><g transform="translate(112.516 357.622)"><g transform="translate(0 0)"><path d="M221.251,382.34h-2.643V384.4h2.955v1.054h-4.237v-7.014h4.083v1.054h-2.8v1.8h2.643Z" transform="translate(-217.326 -376.811)" fill="#fff"/><path d="M236.475,385.452l-.753-1.395c-.3-.537-.5-.913-.7-1.317H235c-.168.407-.355.778-.64,1.317l-.7,1.395h-1.463l2.081-3.552-2-3.461h1.474l.757,1.443c.229.437.4.788.579,1.175h.025c.183-.432.337-.749.551-1.172l.752-1.446h1.469l-2.051,3.42,2.131,3.594Z" transform="translate(-227.358 -376.811)" fill="#fff"/><path d="M252.813,378.414a11.621,11.621,0,0,1,1.962-.144,3.142,3.142,0,0,1,2.065.574,1.973,1.973,0,0,1,.687,1.553,2.141,2.141,0,0,1-.6,1.589,3.7,3.7,0,0,1-2.845.706v2.647h-1.272Zm1.272,3.27a2.551,2.551,0,0,0,.628.058c.958,0,1.542-.477,1.542-1.3,0-.773-.541-1.188-1.428-1.188a3.72,3.72,0,0,0-.742.061Z" transform="translate(-241.272 -376.698)" fill="#fff"/><path d="M270.7,378.438h1.282v5.939h2.884v1.075H270.7Z" transform="translate(-253.342 -376.811)" fill="#fff"/><path d="M290.7,381.637c0,2.349-1.424,3.691-3.356,3.691a3.248,3.248,0,0,1-3.236-3.567,3.365,3.365,0,0,1,3.339-3.675A3.236,3.236,0,0,1,290.7,381.637Zm-5.239.1c0,1.431.723,2.568,1.948,2.568s1.938-1.152,1.938-2.619c0-1.324-.657-2.573-1.935-2.573S285.461,380.295,285.461,381.735Z" transform="translate(-262.389 -376.574)" fill="#fff"/><path d="M307.757,378.421a11.6,11.6,0,0,1,1.943-.151,3.257,3.257,0,0,1,2.163.565,1.766,1.766,0,0,1,.6,1.409A1.855,1.855,0,0,1,311.192,382v.029a1.766,1.766,0,0,1,.978,1.357,15.546,15.546,0,0,0,.554,1.955h-1.316a9.077,9.077,0,0,1-.473-1.655c-.2-.914-.534-1.211-1.262-1.228h-.645v2.882h-1.272Zm1.272,3.1h.758c.869,0,1.4-.458,1.4-1.155,0-.763-.538-1.122-1.366-1.125a3.567,3.567,0,0,0-.8.065Z" transform="translate(-278.347 -376.698)" fill="#fff"/><path d="M326.523,383.469l-.6,1.983H324.6l2.251-7.014h1.631l2.279,7.014h-1.376l-.634-1.983Zm2.016-.969-.553-1.728c-.135-.435-.251-.912-.356-1.318h-.023c-.1.411-.209.9-.333,1.314l-.542,1.732Z" transform="translate(-289.712 -376.811)" fill="#fff"/><path d="M353.5,383.469l-.6,1.983h-1.324l2.251-7.014h1.632l2.279,7.014h-1.376l-.635-1.983Zm2.016-.969-.553-1.728c-.135-.435-.25-.912-.356-1.318h-.023c-.1.411-.209.9-.333,1.314l-.542,1.732Z" transform="translate(-307.914 -376.811)" fill="#fff"/><path d="M377.988,386.339c-.975-.267-1.849-.566-2.734-.9a1.514,1.514,0,0,0-.458-.107,3.247,3.247,0,0,1-3.074-3.555,3.362,3.362,0,0,1,3.354-3.687,3.648,3.648,0,0,1,1.426,6.778v.042c.607.165,1.283.312,1.854.421Zm-1.027-4.655c0-1.337-.658-2.573-1.923-2.573-1.283,0-1.965,1.219-1.963,2.626s.716,2.567,1.936,2.567C376.254,384.3,376.961,383.158,376.961,381.684Z" transform="translate(-321.509 -376.574)" fill="#fff"/><path d="M396.631,378.438v4.089c0,1.37.568,2.009,1.437,2.009.923,0,1.478-.632,1.478-2.009v-4.089h1.282v4.006c0,2.16-1.112,3.121-2.806,3.121-1.618,0-2.672-.908-2.672-3.114v-4.014Z" transform="translate(-337.452 -376.811)" fill="#fff"/><path d="M418.9,373.436l-1.3,1.252h-1.032l.916-1.252Zm-1.011,1.627v7.014h-1.282v-7.014Z" transform="translate(-351.773 -373.436)" fill="#fff"/></g></g><g transform="translate(72.654 358.944)"><path d="M8.693,0C2.328,0,0,2.328,0,8.693V22.2C0,28.568,2.328,30.9,8.693,30.9H22.2c6.365,0,8.7-2.328,8.7-8.693V8.693C30.9,2.328,28.568,0,22.2,0Z" transform="translate(0)" fill="#c8102e"/><g transform="translate(3.448 5.165)"><path d="M108.032,425.008h.819v4.04h-.819v-1.64h-1.851v1.64h-.82v-4.04h.82v1.63h1.851Zm4.617,2.312c0,.657-.326,1.008-.918,1.008s-.923-.361-.923-1.036V425.01h-.82v2.31a1.6,1.6,0,0,0,1.732,1.788,1.626,1.626,0,0,0,1.749-1.822v-2.279h-.82Zm9.472.465-.917-2.778h-.669l-.917,2.778-.892-2.776h-.873l1.408,4.037h.678l.918-2.652.918,2.652h.685l1.4-4.037h-.85Zm3.214-.477h1.491v-.735h-1.491v-.827H127.5v-.736h-2.973v4.034h3.051v-.736h-2.242Zm3.219,1.733h.809v-4.034h-.809Zm-13.465-.838-.368.841h-.837l1.78-4.037h.723l1.772,4.037H117.3l-.363-.841Zm.305-.728h1.239l-.622-1.446Z" transform="translate(-105.362 -414.722)" fill="#fff"/><path d="M131.59,398.524a5.149,5.149,0,0,1-5.143-5.143h.727a4.416,4.416,0,0,0,8.832,0h.727A5.149,5.149,0,0,1,131.59,398.524Z" transform="translate(-119.59 -393.381)" fill="#fff"/></g></g></g></svg>