<svg xmlns="http://www.w3.org/2000/svg" width="149.134" height="48.784" viewBox="0 0 149.134 48.784"><g transform="translate(1302.18 -315.523)"><path d="M5.645,0H143.489a5.645,5.645,0,0,1,5.645,5.645V43.139a5.644,5.644,0,0,1-5.644,5.644H5.643A5.643,5.643,0,0,1,0,43.141V5.645A5.645,5.645,0,0,1,5.645,0Z" transform="translate(-1302.18 315.523)"/><g transform="translate(-1292.176 323.107)"><path d="M-1264.729,345.546a24.035,24.035,0,0,1-2.183,4.077c-1.419,2.16-3.417,4.849-5.895,4.872-2.2.02-2.766-1.433-5.753-1.417s-3.61,1.442-5.812,1.421c-2.477-.022-4.372-2.45-5.789-4.61-3.966-6.037-4.381-13.123-1.935-16.89a8.777,8.777,0,0,1,7.059-4.243c2.626,0,4.276,1.44,6.447,1.44,2.1,0,3.388-1.442,6.424-1.442a8.569,8.569,0,0,1,6.458,3.409A7.389,7.389,0,0,0-1264.729,345.546Z" transform="translate(1293.615 -320.884)" fill="#fff"/><g transform="translate(13.884)"><path d="M-1276.466,327.474a7.363,7.363,0,0,0,1.636-5.458,7.962,7.962,0,0,0-5.139,2.765,6.841,6.841,0,0,0-1.679,5.324A6.72,6.72,0,0,0-1276.466,327.474Z" transform="translate(1281.727 -322.016)" fill="#fff"/></g></g><g transform="translate(-1256.889 323.179)"><g transform="translate(0 11.685)"><path d="M-1257.72,332.311l-5.682,16.724h2.6l1.7-5.136h5.5l1.745,5.136h2.673l-5.707-16.724Zm1.348,2.751c.192.746.4,1.521.665,2.359l1.531,4.434h-4.358l1.51-4.463C-1256.794,336.667-1256.575,335.886-1256.372,335.062Z" transform="translate(1263.402 -332.045)" fill="#fff"/><path d="M-1244.009,336.023a4.737,4.737,0,0,0-4.022,1.929l-.1-1.663h-2.315l.014.213c.069,1.036.1,2.177.1,3.815v12.891h2.53v-6.016a4.444,4.444,0,0,0,3.46,1.487,5.214,5.214,0,0,0,3.833-1.63,6.907,6.907,0,0,0,1.694-4.867,6.732,6.732,0,0,0-1.471-4.444A4.815,4.815,0,0,0-1244.009,336.023Zm-.629,2.1c2.255,0,3.265,2.089,3.265,4.159,0,2.671-1.288,4.33-3.36,4.33a3.069,3.069,0,0,1-2.982-2.348,3.237,3.237,0,0,1-.09-.819V341.4a3.87,3.87,0,0,1,.081-.624c.013-.069.027-.139.036-.206A3.2,3.2,0,0,1-1244.639,338.118Z" transform="translate(1265.578 -331.421)" fill="#fff"/><path d="M-1232.853,336.023a4.737,4.737,0,0,0-4.022,1.929l-.1-1.663h-2.313l.013.213c.068,1.037.1,2.177.1,3.815v12.891h2.531v-6.016a4.437,4.437,0,0,0,3.457,1.487,5.221,5.221,0,0,0,3.836-1.63,6.918,6.918,0,0,0,1.692-4.867,6.737,6.737,0,0,0-1.47-4.444A4.815,4.815,0,0,0-1232.853,336.023Zm-.629,2.1c2.254,0,3.265,2.089,3.265,4.159,0,2.671-1.289,4.33-3.361,4.33a3.068,3.068,0,0,1-2.981-2.348,3.242,3.242,0,0,1-.089-.819V341.4a3.639,3.639,0,0,1,.081-.626c.012-.068.024-.137.036-.2A3.2,3.2,0,0,1-1233.483,338.118Z" transform="translate(1267.452 -331.421)" fill="#fff"/><path d="M-1218.937,339.435c-2.362-.915-3.119-1.633-3.119-2.962,0-1.119.889-2.247,2.877-2.247a5.759,5.759,0,0,1,2.97.745l.214.133.715-2.112-.141-.083a7.328,7.328,0,0,0-3.685-.827c-3.227,0-5.48,1.9-5.48,4.632,0,2.2,1.411,3.735,4.441,4.838,2.148.8,2.947,1.625,2.947,3.033,0,1.6-1.233,2.586-3.217,2.586a6.931,6.931,0,0,1-3.646-1.034l-.22-.141-.678,2.161.124.083a8.667,8.667,0,0,0,4.277,1.1c4.348,0,5.89-2.652,5.89-4.923C-1214.669,342.076-1215.9,340.632-1218.937,339.435Z" transform="translate(1269.859 -332.083)" fill="#fff"/><path d="M-1211.631,333.784l-2.482.779v2.1h-1.816v2.023h1.816v6.194a4.736,4.736,0,0,0,.876,3.211,3.247,3.247,0,0,0,2.448.961,5.95,5.95,0,0,0,1.956-.3l.141-.05-.121-2.025-.242.074a3.781,3.781,0,0,1-1.177.137c-.981,0-1.4-.62-1.4-2.077v-6.121h3.052v-2.023h-3.052Z" transform="translate(1271.376 -331.797)" fill="#fff"/><path d="M-1203.4,336.023c-3.54,0-6.013,2.643-6.013,6.424,0,3.669,2.392,6.231,5.819,6.231h.023c2.9,0,6.013-2.018,6.013-6.448a6.4,6.4,0,0,0-1.612-4.476A5.632,5.632,0,0,0-1203.4,336.023Zm-.073,2c2.276,0,3.312,2.219,3.312,4.282,0,2.537-1.413,4.378-3.36,4.378h-.025c-1.919,0-3.311-1.81-3.311-4.3C-1206.86,340.208-1205.813,338.02-1203.476,338.02Z" transform="translate(1272.47 -331.421)" fill="#fff"/><path d="M-1191.724,336.141l-.152-.039a2.4,2.4,0,0,0-.628-.079,3.608,3.608,0,0,0-3.172,2.037l-.075-1.771h-2.271l.014.213c.068,1,.1,2.127.1,3.644l-.023,8.266h2.53v-6.448a6.548,6.548,0,0,1,.07-.981,2.8,2.8,0,0,1,2.662-2.55,6.525,6.525,0,0,1,.68.042l.27.028Z" transform="translate(1274.383 -331.421)" fill="#fff"/><path d="M-1186.936,336c-3.368,0-5.721,2.691-5.721,6.544,0,3.712,2.341,6.11,5.964,6.11a9.7,9.7,0,0,0,4.005-.768l.153-.069-.486-1.885-.211.085a7.846,7.846,0,0,1-3.17.566,3.517,3.517,0,0,1-3.79-3.669l8.166.024.034-.161a5.645,5.645,0,0,0,.076-1.056C-1181.917,339.085-1183.232,336-1186.936,336Zm-.168,1.925a2.5,2.5,0,0,1,1.857.708,3.606,3.606,0,0,1,.871,2.356h-5.771C-1189.911,339.53-1189,337.928-1187.1,337.928Z" transform="translate(1275.284 -331.425)" fill="#fff"/></g><path d="M-1263.4,322.554a18.507,18.507,0,0,1,2.427-.165,5.421,5.421,0,0,1,3.563.975,3.465,3.465,0,0,1,1.252,2.853,4.006,4.006,0,0,1-1.265,3.076,5.87,5.87,0,0,1-3.9,1.14,17.472,17.472,0,0,1-2.075-.095Zm1.149,7.011a8.213,8.213,0,0,0,1.148.047c2.427.012,3.745-1.222,3.745-3.359.013-1.891-1.161-3.053-3.562-3.053a7.284,7.284,0,0,0-1.33.105Z" transform="translate(1263.402 -322.026)" fill="#fff"/><path d="M-1253.281,330.182a2.853,2.853,0,0,1-3.027-2.925,2.932,2.932,0,0,1,3.131-3.018,2.831,2.831,0,0,1,3.04,2.913,2.942,2.942,0,0,1-3.131,3.03Zm.039-.776a2.023,2.023,0,0,0,1.919-2.219,1.979,1.979,0,0,0-1.892-2.172,1.987,1.987,0,0,0-1.932,2.207,1.989,1.989,0,0,0,1.892,2.184Z" transform="translate(1264.593 -321.715)" fill="#fff"/><path d="M-1249.3,324.35l.849,2.877c.169.634.339,1.233.457,1.821h.038c.144-.576.353-1.187.561-1.809l1.031-2.888h.966l.979,2.842c.235.669.417,1.28.561,1.856h.04a15.741,15.741,0,0,1,.482-1.844l.9-2.853h1.135l-2.036,5.683h-1.044l-.965-2.712a18.467,18.467,0,0,1-.562-1.879h-.026a15.7,15.7,0,0,1-.575,1.891l-1.017,2.7h-1.044l-1.9-5.683Z" transform="translate(1265.573 -321.696)" fill="#fff"/><path d="M-1241.628,325.907c0-.6-.013-1.069-.053-1.538h1.019l.064.927h.027a2.392,2.392,0,0,1,2.087-1.057,2.162,2.162,0,0,1,2.232,2.42v3.393h-1.148v-3.276c0-.916-.38-1.69-1.462-1.69a1.638,1.638,0,0,0-1.54,1.056,1.388,1.388,0,0,0-.078.481v3.429h-1.148Z" transform="translate(1267.05 -321.715)" fill="#fff"/><path d="M-1235.436,322.078h1.149v8.337h-1.149Z" transform="translate(1268.099 -322.078)" fill="#fff"/><path d="M-1230.185,330.182a2.853,2.853,0,0,1-3.027-2.925,2.932,2.932,0,0,1,3.131-3.018,2.831,2.831,0,0,1,3.04,2.913,2.942,2.942,0,0,1-3.131,3.03Zm.038-.776a2.022,2.022,0,0,0,1.919-2.219,1.979,1.979,0,0,0-1.892-2.172,1.987,1.987,0,0,0-1.932,2.207,1.99,1.99,0,0,0,1.892,2.184Z" transform="translate(1268.473 -321.715)" fill="#fff"/><path d="M-1222.166,328.69a8.577,8.577,0,0,0,.091,1.362h-1.031l-.1-.716h-.039a2.43,2.43,0,0,1-1.932.846,1.721,1.721,0,0,1-1.931-1.633c0-1.374,1.356-2.126,3.8-2.114v-.117c0-.47-.143-1.327-1.434-1.315a3.286,3.286,0,0,0-1.657.423l-.262-.693a4.436,4.436,0,0,1,2.088-.494,2.114,2.114,0,0,1,2.414,2.325Zm-1.122-1.538c-1.253-.023-2.675.176-2.675,1.28a.959.959,0,0,0,1.07.986,1.592,1.592,0,0,0,1.552-.951.947.947,0,0,0,.053-.329Z" transform="translate(1269.497 -321.715)" fill="#fff"/><path d="M-1215.782,322.078v6.869c0,.506.014,1.08.052,1.468h-1.031l-.052-.986h-.027a2.361,2.361,0,0,1-2.14,1.115,2.71,2.71,0,0,1-2.714-2.89,2.835,2.835,0,0,1,2.831-3.053,2.175,2.175,0,0,1,1.906.857h.026v-3.381Zm-1.148,4.967a1.7,1.7,0,0,0-.053-.446,1.66,1.66,0,0,0-1.656-1.187,1.945,1.945,0,0,0-1.893,2.184,1.886,1.886,0,0,0,1.866,2.114,1.707,1.707,0,0,0,1.683-1.233,1.593,1.593,0,0,0,.053-.446Z" transform="translate(1270.407 -322.078)" fill="#fff"/><path d="M-1210,330.182a2.853,2.853,0,0,1-3.027-2.925,2.933,2.933,0,0,1,3.131-3.018,2.831,2.831,0,0,1,3.041,2.913,2.943,2.943,0,0,1-3.131,3.03Zm.04-.776a2.022,2.022,0,0,0,1.918-2.219,1.979,1.979,0,0,0-1.892-2.172,1.986,1.986,0,0,0-1.931,2.207,1.989,1.989,0,0,0,1.891,2.184Z" transform="translate(1271.864 -321.715)" fill="#fff"/><path d="M-1206.489,325.907c0-.6-.014-1.069-.053-1.538h1.017l.066.927h.026a2.4,2.4,0,0,1,2.088-1.057,2.162,2.162,0,0,1,2.231,2.42v3.393h-1.148v-3.276c0-.916-.378-1.69-1.461-1.69a1.641,1.641,0,0,0-1.541,1.056,1.417,1.417,0,0,0-.078.481v3.429h-1.147Z" transform="translate(1272.952 -321.715)" fill="#fff"/><path d="M-1196.442,323.184v1.362h1.643v.786h-1.643V328.4c0,.7.222,1.1.862,1.1a2.393,2.393,0,0,0,.666-.07l.052.786a3.457,3.457,0,0,1-1.017.141,1.741,1.741,0,0,1-1.24-.434,2.063,2.063,0,0,1-.444-1.492v-3.1h-.979v-.786h.979V323.5Z" transform="translate(1274.296 -321.892)" fill="#fff"/><path d="M-1194.23,322.078h1.148v3.546h.027a1.95,1.95,0,0,1,.822-.728,2.419,2.419,0,0,1,1.174-.294,2.161,2.161,0,0,1,2.205,2.432v3.381H-1190V327.15c0-.927-.378-1.691-1.461-1.691a1.653,1.653,0,0,0-1.541,1.034,1.134,1.134,0,0,0-.078.493v3.429h-1.148Z" transform="translate(1275.02 -322.078)" fill="#fff"/><path d="M-1187.312,327.388a1.925,1.925,0,0,0,2.154,1.973,4.808,4.808,0,0,0,1.75-.281l.209.728a5.65,5.65,0,0,1-2.115.364,2.8,2.8,0,0,1-3.106-2.865,2.894,2.894,0,0,1,2.975-3.078,2.488,2.488,0,0,1,2.6,2.678,2.355,2.355,0,0,1-.038.493Zm3.354-.739a1.524,1.524,0,0,0-1.579-1.68,1.787,1.787,0,0,0-1.761,1.68Z" transform="translate(1275.996 -321.717)" fill="#fff"/></g></g></svg>