<svg xmlns="http://www.w3.org/2000/svg" xmlnsXlink="http://www.w3.org/1999/xlink" width="149.134" height="48.784" viewBox="0 0 149.134 48.784"><defs><clipPath id="a"><path d="M-1271.657,178.827l-6.724-3.882-12.971-7.489c-.721-.416-1.438-.164-1.438.7v30.513c0,.652.512.933,1.139.572l13.27-7.663,6.724-3.882,6.464-3.731c.758-.438.685-1.039.045-1.383S-1271.657,178.827-1271.657,178.827Z" transform="translate(1292.79 -167.26)" fill="none"/></clipPath><linearGradient id="b" x1="0.5" x2="0.5" y2="1" gradientUnits="objectBoundingBox"><stop offset="0" stop-color="#507aab"/><stop offset="0.113" stop-color="#5b84ad"/><stop offset="0.711" stop-color="#92b7b8"/><stop offset="1" stop-color="#a8cbbd"/></linearGradient><linearGradient id="c" y1="0.5" x2="1" y2="0.5" gradientUnits="objectBoundingBox"><stop offset="0" stop-color="#83b8a8"/><stop offset="1" stop-color="#e6e99d"/></linearGradient><linearGradient id="d" x1="0.5" x2="0.5" y2="1" gradientUnits="objectBoundingBox"><stop offset="0" stop-color="#c44739"/><stop offset="0.122" stop-color="#ba4745"/><stop offset="0.714" stop-color="#8e4c7c"/><stop offset="1" stop-color="#7d4e92"/></linearGradient><linearGradient id="e" x1="0.5" x2="0.5" y2="1" gradientUnits="objectBoundingBox"><stop offset="0" stop-color="#d68c7b"/><stop offset="0.617" stop-color="#e5b67a"/><stop offset="1" stop-color="#edcc7a"/></linearGradient></defs><g transform="translate(1302.18 -158.944)"><path d="M5.534,0H143.6a5.534,5.534,0,0,1,5.534,5.534V43.25a5.534,5.534,0,0,1-5.534,5.534H5.533A5.533,5.533,0,0,1,0,43.251V5.534A5.534,5.534,0,0,1,5.534,0Z" transform="translate(-1302.18 158.944)"/><g transform="translate(-1290.994 168.85)"><g clip-path="url(#a)"><path d="M-1292.79,166.828v33.036l16.659-16.518Z" transform="translate(1292.79 -167.342)" fill="url(#b)"/><path d="M-1271.657,178.929l-6.725-3.882-14.408-8.319v.12l16.659,16.518Z" transform="translate(1292.79 -167.361)" fill="url(#c)"/><path d="M-1292.79,197.211v.12l14.408-8.32,6.724-3.882-4.474-4.436Z" transform="translate(1292.79 -164.689)" fill="url(#d)"/><path d="M-1274.332,176.969l-4.474,4.437,4.474,4.436,7.685-4.437Z" transform="translate(1295.465 -165.402)" fill="url(#e)"/></g></g><g transform="translate(-1190.587 177.498)"><path d="M-1204.038,187.713a4.168,4.168,0,0,1-1.713-.345,3.235,3.235,0,0,1-1.3-1.065h-.1a12.844,12.844,0,0,1,.1,1.6v3.953h-1.455V177.93h1.183l.2,1.315h.07a3.371,3.371,0,0,1,1.307-1.139,3.954,3.954,0,0,1,1.708-.351,3.552,3.552,0,0,1,2.951,1.307,5.751,5.751,0,0,1,1.039,3.663,5.729,5.729,0,0,1-1.056,3.679A3.561,3.561,0,0,1-1204.038,187.713Zm-.21-8.722a2.579,2.579,0,0,0-2.13.815,4.194,4.194,0,0,0-.676,2.595v.324a4.807,4.807,0,0,0,.676,2.9,2.567,2.567,0,0,0,2.165.871,2.252,2.252,0,0,0,1.951-1.007,4.78,4.78,0,0,0,.705-2.779,4.6,4.6,0,0,0-.705-2.758A2.322,2.322,0,0,0-1204.248,178.992Z" transform="translate(1208.508 -173.899)" fill="#f9f9f9"/><path d="M-1198.345,188.157h-1.456V174.518h1.456Z" transform="translate(1210.174 -174.518)" fill="#f9f9f9"/><path d="M-1190.493,187.535l-.29-1.368h-.07a4.03,4.03,0,0,1-1.433,1.223,4.371,4.371,0,0,1-1.783.319,3.209,3.209,0,0,1-2.24-.736,2.684,2.684,0,0,1-.811-2.094q0-2.911,4.654-3.051l1.631-.052v-.6a2.435,2.435,0,0,0-.486-1.669,2,2,0,0,0-1.556-.54,6.334,6.334,0,0,0-2.717.736l-.448-1.113a6.86,6.86,0,0,1,1.557-.605,6.707,6.707,0,0,1,1.7-.219,3.659,3.659,0,0,1,2.547.762,3.186,3.186,0,0,1,.828,2.446v6.557Zm-3.287-1.026a2.956,2.956,0,0,0,2.135-.745,2.762,2.762,0,0,0,.776-2.087v-.867l-1.456.061a5.3,5.3,0,0,0-2.5.54,1.626,1.626,0,0,0-.766,1.486,1.5,1.5,0,0,0,.478,1.2A1.978,1.978,0,0,0-1193.78,186.51Z" transform="translate(1210.687 -173.896)" fill="#f9f9f9"/><path d="M-1189.943,177.9h1.561l2.1,5.479a20.932,20.932,0,0,1,.859,2.709h.07q.115-.447.478-1.53t2.379-6.658h1.562l-4.129,10.941a5.474,5.474,0,0,1-1.434,2.3,3.051,3.051,0,0,1-2.011.678,5.814,5.814,0,0,1-1.315-.149v-1.165a5.061,5.061,0,0,0,1.078.1,2.223,2.223,0,0,0,2.14-1.683l.534-1.366Z" transform="translate(1212.06 -173.871)" fill="#f9f9f9"/></g><g transform="translate(-1256.923 176.423)"><path d="M-1226.178,178.768a3.388,3.388,0,0,1,1.426,2.713,3.4,3.4,0,0,1-1.688,2.853,1.412,1.412,0,0,0-.563.986,1.1,1.1,0,0,0,.523.864l.724.561a3.5,3.5,0,0,1,1.687,2.815c0,1.888-1.829,3.8-5.285,3.8-2.914,0-4.32-1.385-4.32-2.875a2.889,2.889,0,0,1,1.547-2.451,8.651,8.651,0,0,1,3.837-.926,2.1,2.1,0,0,1-.6-1.365,1.813,1.813,0,0,1,.2-.784c-.222.02-.443.04-.644.04a3.177,3.177,0,0,1-3.335-3.155,3.619,3.619,0,0,1,1.286-2.694,5.484,5.484,0,0,1,3.6-1.106h4.139l-1.285.724Zm-1.427,8.923a3.063,3.063,0,0,0-.462-.021,8.011,8.011,0,0,0-2.11.323,2.257,2.257,0,0,0-1.729,2.069c0,1.426,1.387,2.453,3.537,2.453,1.929,0,2.954-.927,2.954-2.172C-1225.415,189.316-1226.078,188.777-1227.605,187.691Zm.583-3.819a2.028,2.028,0,0,0,.5-1.467c0-1.447-.864-3.7-2.531-3.7a1.876,1.876,0,0,0-1.407.664,2.323,2.323,0,0,0-.442,1.487c0,1.346.784,3.578,2.513,3.578A2.058,2.058,0,0,0-1227.023,183.872Z" transform="translate(1270.029 -172.769)" fill="#f9f9f9"/><path d="M-1237.216,187.415a4.735,4.735,0,0,1-4.9-4.735,4.972,4.972,0,0,1,5.2-4.875,4.691,4.691,0,0,1,4.794,4.734A4.9,4.9,0,0,1-1237.216,187.415Zm2.508-1.625a3.63,3.63,0,0,0,.6-2.228c0-1.767-.842-5.137-3.331-5.137a2.8,2.8,0,0,0-1.8.684,3.035,3.035,0,0,0-.923,2.448c0,1.985.983,5.254,3.411,5.254A2.562,2.562,0,0,0-1234.708,185.79Z" transform="translate(1268.415 -172.815)" fill="#f9f9f9"/><path d="M-1246.344,187.415a4.734,4.734,0,0,1-4.9-4.735,4.971,4.971,0,0,1,5.2-4.875,4.691,4.691,0,0,1,4.795,4.734A4.9,4.9,0,0,1-1246.344,187.415Zm2.509-1.625a3.637,3.637,0,0,0,.6-2.228c0-1.767-.843-5.137-3.331-5.137a2.8,2.8,0,0,0-1.8.684,3.035,3.035,0,0,0-.923,2.448c0,1.985.983,5.254,3.411,5.254A2.568,2.568,0,0,0-1243.835,185.79Z" transform="translate(1266.669 -172.815)" fill="#f9f9f9"/><path d="M-1250.294,187.83l-2.884.666a21.484,21.484,0,0,1-3.327.342c-5.568,0-7.685-4.1-7.685-7.3,0-3.912,3-7.542,8.149-7.542a11.63,11.63,0,0,1,3.085.423,7.87,7.87,0,0,1,2.663,1.251l-1.674,1.594-.706.16.505-.807a5.768,5.768,0,0,0-4.317-1.9c-3.187,0-5.587,2.422-5.587,5.952a7.133,7.133,0,0,0,7.14,7.361,6,6,0,0,0,2.563-.505V184.28l-3.045.161,1.613-.868h4.276l-.523.5a.471.471,0,0,0-.2.323c-.022.182-.041.767-.041.969Z" transform="translate(1264.191 -173.544)" fill="#f9f9f9"/><path d="M-1221.343,187.321c-.666-.061-.805-.181-.805-.969V174.936c0-.044.007-.088.011-.13.082-.705.284-.827.909-1.19h-2.885l-1.513.726h1.542V186.8c0,.4-.08.463-.544,1.069h3.572l.746-.443C-1220.656,187.38-1221,187.361-1221.343,187.321Z" transform="translate(1271.569 -173.616)" fill="#f9f9f9"/><path d="M-1213.967,186.7c-.22.12-.441.261-.66.361a4.67,4.67,0,0,1-1.946.38,4.282,4.282,0,0,1-2.664-.781,5.183,5.183,0,0,1-2.042-4.227,4.539,4.539,0,0,1,4.586-4.627,3.892,3.892,0,0,1,2.065.561,3.318,3.318,0,0,1,1.4,1.982l-4.707,1.9-1.543.12c.5,2.543,2.223,4.025,4.127,4.025a5.179,5.179,0,0,0,2.443-.7Zm-1.882-5.971c.38-.139.58-.26.58-.54a1.988,1.988,0,0,0-1.984-1.723,2.467,2.467,0,0,0-2.3,2.784c0,.341.041.7.061,1.063Z" transform="translate(1272.401 -172.814)" fill="#f9f9f9"/><g transform="translate(59.77 4.996)"><path d="M-1213.422,177.947v1.322h-.161v-1.322h-.437v-.137h1.035v.137Z" transform="translate(1214.02 -177.81)" fill="#f9f9f9"/><path d="M-1211.829,179.269v-1.334h-.007l-.407,1.334h-.125l-.411-1.334h0v1.334h-.145V177.81h.249l.371,1.179h.006l.366-1.179h.253v1.459Z" transform="translate(1214.229 -177.81)" fill="#f9f9f9"/></g></g><g transform="translate(-1256.889 168.772)"><path d="M-1260.191,171.351h-1a6.652,6.652,0,0,0-.285-1.171h-1.447a6.017,6.017,0,0,0-.294,1.171h-.942q0-.121.732-2a15.769,15.769,0,0,0,.731-2.073h1.183a17.486,17.486,0,0,0,.662,2.043A17.829,17.829,0,0,1-1260.191,171.351Zm-1.446-1.77a17.541,17.541,0,0,1-.536-1.748h-.05a18.234,18.234,0,0,1-.554,1.748Z" transform="translate(1264.162 -167.179)" fill="#fdfdfd"/><path d="M-1256.9,171.351h-.774a7.643,7.643,0,0,0-.861-1.356,7.436,7.436,0,0,1-1.027-1.77h-.05a11,11,0,0,1,.079,1.24q0,.774.043,1.886h-.77q.047-.97.047-2.134c0-.761-.016-1.411-.047-1.944h.929a5.926,5.926,0,0,0,.774,1.325,7.852,7.852,0,0,1,.946,1.669h.047a11.867,11.867,0,0,1-.075-1.252q0-.849-.044-1.742h.784q-.045.777-.044,1.944T-1256.9,171.351Z" transform="translate(1264.909 -167.179)" fill="#fdfdfd"/><path d="M-1253.075,169.174a2.31,2.31,0,0,1-.569,1.553,1.991,1.991,0,0,1-1.6.665q-.463,0-1.278-.038.041-.945.041-2.134c0-.759-.013-1.408-.041-1.944h.548c.091,0,.224,0,.4-.01s.293-.01.348-.01a2.113,2.113,0,0,1,1.639.563A1.949,1.949,0,0,1-1253.075,169.174Zm-.854.135a1.515,1.515,0,0,0-.351-1.014,1.33,1.33,0,0,0-1.071-.411,3.241,3.241,0,0,0-.369.029q.03.625.031,1.308,0,.751.031,1.486a2.148,2.148,0,0,0,.407.041,1.181,1.181,0,0,0,1-.418A1.609,1.609,0,0,0-1253.929,169.308Z" transform="translate(1265.624 -167.182)" fill="#fdfdfd"/><path d="M-1249.584,171.354h-.927a6.229,6.229,0,0,0-.557-1.369.73.73,0,0,0-.627-.26l-.348,0q0,.806.028,1.626h-.871q.041-.945.041-2.134c0-.759-.013-1.408-.041-1.944h.542c.062,0,.193,0,.393-.01s.384-.01.553-.01q1.437,0,1.438.984a1.1,1.1,0,0,1-.821,1.086v.046a.977.977,0,0,1,.554.493A10.907,10.907,0,0,1-1249.584,171.354Zm-1.175-2.882q0-.624-.8-.623a2.693,2.693,0,0,0-.52.044c.023.324.034.745.034,1.265.115,0,.211.006.291.006Q-1250.759,169.164-1250.758,168.472Z" transform="translate(1266.319 -167.182)" fill="#fdfdfd"/><path d="M-1245.7,169.251a2.254,2.254,0,0,1-.589,1.6,1.913,1.913,0,0,1-1.457.633,1.841,1.841,0,0,1-1.384-.581,2.048,2.048,0,0,1-.557-1.477,2.251,2.251,0,0,1,.589-1.594,1.911,1.911,0,0,1,1.457-.633,1.845,1.845,0,0,1,1.384.579A2.047,2.047,0,0,1-1245.7,169.251Zm-.865.092a1.621,1.621,0,0,0-.335-1.063,1.032,1.032,0,0,0-.827-.407.955.955,0,0,0-.777.411,1.634,1.634,0,0,0-.319,1.036,1.615,1.615,0,0,0,.336,1.06,1.032,1.032,0,0,0,.826.409.953.953,0,0,0,.777-.412A1.635,1.635,0,0,0-1246.57,169.343Z" transform="translate(1266.93 -167.194)" fill="#fdfdfd"/><path d="M-1244.717,171.351h-.886q.041-.97.041-2.134c0-.761-.013-1.411-.041-1.944h.886q-.039.79-.041,1.944Q-1244.757,170.4-1244.717,171.351Z" transform="translate(1267.713 -167.179)" fill="#fdfdfd"/><path d="M-1240.495,169.174a2.311,2.311,0,0,1-.569,1.553,1.991,1.991,0,0,1-1.6.665c-.31,0-.735-.013-1.278-.038q.041-.945.04-2.134c0-.759-.013-1.408-.04-1.944h.548c.09,0,.224,0,.4-.01s.293-.01.348-.01a2.113,2.113,0,0,1,1.639.563A1.949,1.949,0,0,1-1240.495,169.174Zm-.855.135a1.513,1.513,0,0,0-.35-1.014,1.33,1.33,0,0,0-1.071-.411,3.223,3.223,0,0,0-.369.029q.031.625.031,1.308,0,.751.031,1.486a2.149,2.149,0,0,0,.407.041,1.182,1.182,0,0,0,1-.418A1.609,1.609,0,0,0-1241.35,169.308Z" transform="translate(1268.031 -167.182)" fill="#fdfdfd"/><path d="M-1235.354,171.351h-1a6.652,6.652,0,0,0-.285-1.171h-1.447a6.012,6.012,0,0,0-.294,1.171h-.942q0-.121.732-2a15.622,15.622,0,0,0,.73-2.073h1.184a17.486,17.486,0,0,0,.662,2.043A18,18,0,0,1-1235.354,171.351Zm-1.448-1.77a17.573,17.573,0,0,1-.536-1.748h-.05a18.32,18.32,0,0,1-.554,1.748Z" transform="translate(1268.914 -167.179)" fill="#fdfdfd"/><path d="M-1232.448,168.343a1.22,1.22,0,0,1-.555,1.106,2.472,2.472,0,0,1-1.364.357c-.1,0-.168,0-.21-.006q0,.588.035,1.553h-.88q.039-.906.041-2.134c0-.751-.014-1.4-.041-1.944h.545c.077,0,.226,0,.445-.01s.409-.01.569-.01a1.792,1.792,0,0,1,1.005.269A.911.911,0,0,1-1232.448,168.343Zm-.808.173q0-.67-.89-.671a2.451,2.451,0,0,0-.469.048q.034.591.035,1.34c.052,0,.113.006.181.006Q-1233.256,169.239-1233.256,168.516Z" transform="translate(1269.66 -167.182)" fill="#fdfdfd"/><path d="M-1229.294,168.343a1.22,1.22,0,0,1-.556,1.106,2.472,2.472,0,0,1-1.364.357c-.1,0-.168,0-.21-.006q0,.588.035,1.553h-.88q.041-.906.041-2.134c0-.751-.013-1.4-.041-1.944h.544c.077,0,.226,0,.446-.01s.409-.01.569-.01a1.789,1.789,0,0,1,1.006.269A.912.912,0,0,1-1229.294,168.343Zm-.809.173q0-.67-.889-.671a2.463,2.463,0,0,0-.471.048c.024.394.035.841.035,1.34.052,0,.113.006.182.006Q-1230.1,169.239-1230.1,168.516Z" transform="translate(1270.263 -167.182)" fill="#fdfdfd"/><path d="M-1223.977,169.251a2.249,2.249,0,0,1-.589,1.6,1.911,1.911,0,0,1-1.457.633,1.843,1.843,0,0,1-1.384-.581,2.048,2.048,0,0,1-.557-1.477,2.247,2.247,0,0,1,.59-1.594,1.909,1.909,0,0,1,1.456-.633,1.844,1.844,0,0,1,1.384.579A2.047,2.047,0,0,1-1223.977,169.251Zm-.864.092a1.615,1.615,0,0,0-.336-1.063,1.031,1.031,0,0,0-.827-.407.955.955,0,0,0-.777.411,1.634,1.634,0,0,0-.319,1.036,1.609,1.609,0,0,0,.337,1.06,1.029,1.029,0,0,0,.824.409.951.951,0,0,0,.777-.412A1.635,1.635,0,0,0-1224.84,169.343Z" transform="translate(1271.087 -167.194)" fill="#fdfdfd"/><path d="M-1220.513,171.351h-.774a7.557,7.557,0,0,0-.861-1.356,7.472,7.472,0,0,1-1.027-1.77h-.05a11.029,11.029,0,0,1,.079,1.24q0,.774.044,1.886h-.771q.047-.97.047-2.134c0-.761-.016-1.411-.047-1.944h.93a5.891,5.891,0,0,0,.773,1.325,7.788,7.788,0,0,1,.946,1.669h.048a11.543,11.543,0,0,1-.076-1.252q0-.849-.043-1.742h.783q-.045.777-.044,1.944T-1220.513,171.351Z" transform="translate(1271.87 -167.179)" fill="#fdfdfd"/></g></g></svg>