<?xml version="1.0" encoding="UTF-8"?>
<svg width="14px" height="15px" viewBox="0 0 14 15" version="1.1" xmlns="http://www.w3.org/2000/svg" xmlns:xlink="http://www.w3.org/1999/xlink">
    <title>payment-info</title>
    <g id="Page-1" stroke="none" stroke-width="1" fill="none" fill-rule="evenodd">
        <g id="payment-info" transform="translate(0.750000, 0.980469)">
            <path d="M5.22559,3.111041 C5.22559,3.613661 5.63259,3.933511 6.16059,3.933511 C6.68859,3.933511 7.09559,3.613661 7.09559,3.111041 L7.09559,3.088201 C7.09559,2.585581 6.68859,2.277161 6.16059,2.277161 C5.63259,2.277161 5.22559,2.585581 5.22559,3.088201 L5.22559,3.111041 Z M5.32459,9.873531 C5.32459,10.353231 5.69859,10.741631 6.16059,10.741631 C6.62259,10.741631 6.99659,10.353231 6.99659,9.873531 L6.99659,5.349971 C6.99659,4.870201 6.62259,4.481811 6.16059,4.481811 C5.69859,4.481811 5.32459,4.870201 5.32459,5.349971 L5.32459,9.873531 Z" id="Shape" fill="#1E2676" fill-rule="nonzero"></path>
            <path d="M12.5,6.519231 C12.5,10.146631 9.6754,13.038431 6.25,13.038431 C2.82465,13.038431 0,10.146631 0,6.519231 C0,2.891831 2.82465,0 6.25,0 C9.6754,0 12.5,2.891831 12.5,6.519231 Z" id="Path" stroke="#1E2676" stroke-width="1.5"></path>
        </g>
    </g>
</svg>