<?xml version="1.0" encoding="UTF-8"?>
<svg width="78px" height="78px" viewBox="0 0 78 78" version="1.1" xmlns="http://www.w3.org/2000/svg" xmlnsXlink="http://www.w3.org/1999/xlink">
    <!-- Generator: Sketch 48.2 (47327) - http://www.bohemiancoding.com/sketch -->
    <title>editar</title>
    <desc>Created with Sketch.</desc>
    <defs></defs>
    <g id="Page-1" stroke="none" stroke-width="1" fill="none" fillRule="evenodd">
        <g id="editar" transform="translate(5.000000, 3.000000)" fillRule="nonzero" stroke="#979797" stroke-width="6">
            <path d="M68.3790978,12.8865564 L57.1126139,1.61990872 C56.2860784,0.793363759 54.9460023,0.793363759 54.1194669,1.61990872 L6.2511238,49.4889473 C6.2309494,49.509122 6.22544729,49.5347988 6.20710693,49.5549735 C6.05647425,49.7177991 5.93266241,49.9035196 5.8402997,50.1051924 C5.8201253,50.1510439 5.79261476,50.1932274 5.77610844,50.2390789 C5.75960211,50.2849305 5.75043193,50.2867646 5.73942771,50.3142755 L0.108936784,67.21333 C-0.144973051,67.9740533 0.0528821554,68.812946 0.619959476,69.3800315 C1.1870368,69.9471171 2.02591726,70.1449752 2.78662954,69.8910616 L19.6836044,64.2586548 C19.7019448,64.2586548 19.7184511,64.2384801 19.7367915,64.2311439 C19.8700306,64.1835543 19.997894,64.1220807 20.118271,64.0477376 C20.1384454,64.0367332 20.1586198,64.029397 20.1769602,64.0165586 C20.2966129,63.9390721 20.4078671,63.84933 20.5089207,63.7487854 L59.9406976,24.3164356 L68.388268,15.8687425 C69.2059625,15.0413625 69.2018652,13.7088918 68.3790978,12.8865564 Z M0,69.6315208 L6.54226177,50.0007119 L19.6267853,63.0854255 L0,69.6315208 Z M56.4853944,0.707106781 L68.9494138,13.1711262 C69.3399381,13.5616505 69.3399381,14.1948155 68.9494138,14.5853398 L62.5853398,20.9494138 C62.1948155,21.3399381 61.5616505,21.3399381 61.1711262,20.9494138 L48.7071068,8.48539438 C48.3165825,8.09487009 48.3165825,7.46170511 48.7071068,7.07118082 L55.0711808,0.707106781 C55.4617051,0.316582489 56.0948701,0.316582489 56.4853944,0.707106781 Z" id="Shape"></path>
        </g>
    </g>
</svg>