<!-- svg minify -->
<svg xmlns="http://www.w3.org/2000/svg" width="27.521" height="44.651" viewBox="0 0 27.521 44.651"><path d="M22.327 0H5.197a5.2 5.2 0 0 0-5.2 5.2v34.259a5.2 5.2 0 0 0 5.2 5.2h17.13a5.2 5.2 0 0 0 5.2-5.2V5.2a5.2 5.2 0 0 0-5.2-5.2zM3.256 10.392h21.011v23.865H3.256zm1.941-7.137h17.13a1.943 1.943 0 0 1 1.94 1.941v1.941H3.256V5.196a12.94 12.94 0 0 1 1.94-1.941zm17.13 38.141H5.197a1.944 1.944 0 0 1-1.941-1.941v-1.942h21.011v1.942a1.943 1.943 0 0 1-1.94 1.941z" fill="#949494"/><path d="M13.762 38.027a1.427 1.427 0 1 0 1.427 1.427 1.429 1.429 0 0 0-1.427-1.427z" fill="#949494"/></svg>