<svg xmlns="http://www.w3.org/2000/svg" width="43.457" height="30.161" viewBox="0 0 43.457 30.161"><path d="M1798.542,557.862v0l0,0a5.4,5.4,0,0,0-4.109-1.728h-32.5a5.389,5.389,0,0,0-4.154,1.781l0,0v0a5.514,5.514,0,0,0-1.323,3.695v19.2a5.359,5.359,0,0,0,5.35,5.479h32.628a5.485,5.485,0,0,0,5.478-5.479v-19.2A5.5,5.5,0,0,0,1798.542,557.862Zm-5.192,1.836-14.477,11.48-15.647-11.48Zm1.078,23.02H1761.8a1.768,1.768,0,0,1-1.781-1.909V561.774l17.84,13.088a1.785,1.785,0,0,0,2.166-.041l16.311-12.937v18.924A1.888,1.888,0,0,1,1794.428,582.718Z" transform="translate(-1756.45 -556.127)" fill="#949494"/></svg>