<svg xmlns="http://www.w3.org/2000/svg" width="22.365" height="14.201" viewBox="0 0 22.365 14.201"><defs><style>.a{fill:#949494;}</style></defs><g transform="translate(0 0)"><path class="a" d="M1909.073,1193.367h-20.626a.869.869,0,0,1-.869-.87v-12.462a.869.869,0,0,1,.869-.869h20.626a.869.869,0,0,1,.87.869V1192.5A.869.869,0,0,1,1909.073,1193.367Zm-19.756-1.739H1908.2V1180.9h-18.887Z" transform="translate(-1887.578 -1179.166)"/><g transform="translate(3.207 2.769)"><path class="a" d="M1900.5,1192h-5.077a.869.869,0,0,1-.87-.869v-5.078a.869.869,0,0,1,.87-.869h5.077a.869.869,0,0,1,.869.869v5.078A.869.869,0,0,1,1900.5,1192Zm-4.207-1.739h3.337v-3.338h-3.337Z" transform="translate(-1894.55 -1185.186)"/></g></g></svg>