<svg xmlns="http://www.w3.org/2000/svg" width="46.013" height="48.661" viewBox="0 0 46.013 48.661"><path d="M1935.9,1155.527l-10.178-3.8v-3.846a16.062,16.062,0,0,0,5.513-12.406c0-.455-.024-.9-.058-1.346,0-.018.007-.036.005-.054s-.007-.015-.008-.024c-.616-7.707-6.161-13.76-12.9-13.76-6.446,0-11.793,5.55-12.779,12.784-.008.056-.019.109-.022.166a17.852,17.852,0,0,0-.156,2.235,15.883,15.883,0,0,0,6.147,12.891v3.36l-10.235,3.8a8.564,8.564,0,0,0-5.644,8.066v3.529a1.834,1.834,0,0,0,1.835,1.835h42.342a1.834,1.834,0,0,0,1.835-1.835v-3.529A8.594,8.594,0,0,0,1935.9,1155.527Zm-17.624-31.568c4.333,0,7.972,3.7,8.992,8.686-2.5.287-4.1-.7-5.7-3.49a1.814,1.814,0,0,0-1.63-.926,1.836,1.836,0,0,0-1.592.987c-.9,1.73-4.118,3.306-6.748,3.306a7.36,7.36,0,0,1-2.224-.329C1910.522,1127.438,1914.076,1123.959,1918.278,1123.959Zm-9.269,11.946a11.373,11.373,0,0,0,2.6.289,13.486,13.486,0,0,0,8.229-3.092,8.183,8.183,0,0,0,6.614,3.28c.352,0,.713-.021,1.081-.057-.354,5.948-4.363,10.656-9.251,10.656C1913.275,1146.981,1909.2,1142.05,1909.009,1135.905Zm28.921,29.372H1899.26v-1.693a4.895,4.895,0,0,1,3.228-4.617l11.452-4.247a1.834,1.834,0,0,0,1.2-1.721v-2.814a10.947,10.947,0,0,0,6.914-.192V1153a1.834,1.834,0,0,0,1.194,1.719l11.4,4.257a4.989,4.989,0,0,1,3.286,4.609Z" transform="translate(-1895.588 -1120.287)" fill="#949494"/></svg>