<!-- svg minify -->
<svg xmlns="http://www.w3.org/2000/svg" width="57.135" height="73.216" viewBox="0 0 57.135 73.216"><path d="M28.568 73.216a3.3 3.3 0 0 1-1.94-.63C25.542 71.795 0 52.939 0 28.568a28.568 28.568 0 0 1 57.135 0c0 24.371-25.542 43.227-26.628 44.018a3.3 3.3 0 0 1-1.939.63zm0-66.623A22.27 22.27 0 0 0 6.593 28.568c0 17.453 16.274 32.44 21.972 37.151 5.7-4.722 21.978-19.743 21.978-37.151A22.27 22.27 0 0 0 28.568 6.593z" fill="#fbb905"/><path d="M28.568 42.191a13.625 13.625 0 1 1 13.625-13.624 13.641 13.641 0 0 1-13.625 13.624zm0-20.657a7.032 7.032 0 1 0 7.033 7.033 7.041 7.041 0 0 0-7.033-7.033z" fill="#fbb905"/></svg>